<svg xmlns="http://www.w3.org/2000/svg" xml:space="preserve" id="Layer_1" x="0" y="0" style="enable-background:new 0 0 756.2 173.8" version="1.1" viewBox="0 0 756.2 173.8"><style>.st0{fill:#fff}</style><path d="M0 86.9 86.9 0l86.7 86.9h-49.4L86.8 49.6 49.5 86.9l37.4 37.4V86.9h37.3v50l-37.3 36.9z" class="st0"/><path d="M274.8 93.9c-.3 2.2-.4 3.6-1.1 5.8-.6 2.2-1.4 4.3-2.5 6.3-1.1 2.1-2.5 4.1-4 5.9-3.5 4.3-8 7.6-13.1 9.9-5.2 2.2-10.8 3.4-16.5 3.3-3.6 0-7.2-.5-10.7-1.4-3.4-1-6.6-2.4-9.6-4.2-2.9-1.7-5.6-3.8-7.9-6.3-2.3-2.4-4.4-5.1-6-8-1.7-3-3-6.1-3.9-9.4-.9-3.4-1.4-6.9-1.4-10.4 0-7.1 1.8-14.1 5.3-20.4 3.3-6 8.2-10.9 14.1-14.4 3-1.8 6.3-3.1 9.7-4 3.5-1 7.2-1.4 10.8-1.4 3.6 0 7.1.4 10.6 1.3 3.3.8 6.4 2 9.4 3.6 2.9 1.6 5.6 3.6 8 5.8 2.5 2.4 4.7 5 6.5 7.9l-6.8 4c-3-4.7-7.1-8.6-11.9-11.4-4.9-2.8-10.5-4.1-16.1-4-2.9 0-5.7.4-8.4 1.2-2.6.8-5.1 1.9-7.4 3.4-2.3 1.5-4.5 3.2-6.3 5.2-1.9 2-3.6 4.3-5 6.7-1.4 2.4-2.5 5.1-3.2 7.8-.7 2.8-1.1 5.6-1.1 8.5 0 2.9.4 5.8 1.1 8.6.7 2.7 1.8 5.3 3.1 7.8 1.4 2.4 3 4.6 5 6.6 1.9 2 4.1 3.7 6.4 5.2 2.4 1.5 5 2.6 7.8 3.3 2.8.8 5.7 1.2 8.6 1.2 3.6 0 7.2-.6 10.7-1.8 3.3-1.2 6.3-2.9 9-5.2 2.6-2.3 4.8-5 6.3-8.1 1.6-3.3 2.5-5.7 2.6-9.4h-25.6v-6.9H275c.1-.1.2 4.5-.2 7.4z" style="fill-rule:evenodd;clip-rule:evenodd;fill:#fff"/><path d="M323.1 98.4c0-2.5-.4-5-1.3-7.4-.8-2.2-2.1-4.3-3.6-6-1.6-1.7-3.5-3.1-5.7-4.1-2.3-1-4.9-1.5-7.4-1.5-2.6 0-5.1.5-7.4 1.5-2.1 1-4 2.4-5.6 4.2-1.6 1.8-2.8 3.9-3.5 6.2-.8 2.5-1.2 5-1.2 7.6 0 2.5.4 5 1.3 7.4.8 2.3 2.1 4.4 3.6 6.3 1.6 1.8 3.5 3.3 5.7 4.4 2.3 1.1 4.9 1.7 7.4 1.6 2.5.1 5-.5 7.3-1.5 2.3-1.1 4.3-2.6 5.8-4.6 1.5-1.9 2.7-4.1 3.4-6.5.8-2.4 1.2-5 1.2-7.6zm-.3 25.4v-8.6h-.2c-.8 1.6-1.8 3-3.1 4.1-1.3 1.2-2.8 2.3-4.4 3.1-1.6.8-3.4 1.5-5.1 1.9-1.8.4-3.6.6-5.4.6-3.4 0-6.8-.6-9.9-2-2.9-1.3-5.5-3.1-7.7-5.5s-3.9-5.2-5-8.3c-1.2-3.3-1.8-6.8-1.8-10.4 0-3.4.6-6.8 1.8-10.1 1.1-3 2.8-5.8 5-8.1s4.8-4.2 7.7-5.5c3.1-1.4 6.5-2 9.9-2 1.8 0 3.6.2 5.4.6 1.7.4 3.4 1 5 1.8s3.1 1.8 4.5 2.9c1.3 1.2 2.5 2.5 3.4 4h.2v-8.2h7.4v49.5h-7.7zM395.4 123.7v-31c.3-3.6-.6-7.2-2.5-10.3-1-1.1-2.2-2-3.5-2.5-1.4-.5-2.8-.8-4.3-.7-1.7-.1-3.3.2-4.8.9s-2.8 1.8-3.7 3.2c-2 3.6-3 7.7-2.7 11.8v28.6h-7.4V94.4c0-2.3-.2-4.5-.5-6.7-.3-1.7-.9-3.3-1.8-4.7-.8-1.2-1.9-2.2-3.3-2.8-1.6-.7-3.3-1-5-.9-1.6-.1-3.3.3-4.7 1.1-1.5.8-2.7 1.9-3.5 3.3-2.2 4.1-3.2 8.7-2.8 13.3v26.8h-7.4V74.3h7.4v6.3h.2c1.2-2.3 3-4.2 5.2-5.5 2.4-1.3 5.1-2 7.9-1.9 3 0 5.9.7 8.4 2.2 2.7 1.6 4.8 4 6.1 6.9 1.2-2.8 3.3-5.1 5.9-6.7 2.7-1.6 5.8-2.4 9-2.3 2.2-.2 4.4.2 6.5 1 2.1.8 3.9 2.1 5.4 3.7 2.8 3.9 4.2 8.6 3.9 13.4v32.5h-8zM449.4 88.6c-.8-1.9-1.9-3.6-3.3-5.1-1.4-1.5-3.1-2.6-5-3.3-2.2-.9-4.6-1.3-7-1.2-2.3 0-4.5.4-6.6 1.2-2 .8-3.7 1.9-5.3 3.4-1.5 1.4-2.7 3.1-3.6 4.9-.9 2-1.5 4.1-1.7 6.3h34.4c-.4-2.1-1-4.2-1.9-6.2zm-32.9 11.6c0 2.7.6 5.3 1.6 7.8.9 2.2 2.2 4.2 3.9 5.9 1.7 1.6 3.6 2.9 5.8 3.8 2.3.9 4.7 1.4 7.1 1.3 3.4.1 6.8-.9 9.7-2.7 2.8-1.9 5.1-4.5 6.8-7.4l6.3 1.7c-1 2.2-2.3 4.3-3.9 6.1-1.6 1.8-3.4 3.3-5.4 4.5-2.1 1.3-4.3 2.2-6.6 2.9-2.4.6-4.9.9-7.4.9-3.6.1-7.1-.6-10.4-2-3-1.3-5.7-3.1-7.9-5.5s-3.9-5.2-5-8.2c-1.2-3.3-1.8-6.7-1.8-10.2 0-3.4.6-6.9 1.8-10.1 1.1-3 2.9-5.8 5.1-8.2 2.2-2.4 4.9-4.2 7.8-5.5 3.2-1.4 6.6-2.1 10.1-2 3.6-.1 7.1.6 10.5 2 3 1.2 5.6 3.1 7.8 5.5 2.2 2.5 3.8 5.4 4.8 8.5 1.1 3.6 1.7 7.3 1.6 11l-42.3-.1zM544.7 123.8l-11.6-60h-.2l-25.2 62h-1.8l-24.8-62h-.2l-11.8 60h-7.8l15.9-79.5h4.1l25.8 64.6 26.1-64.6h4.2l15.5 79.5zM598.3 98.4c0-2.5-.4-5-1.3-7.4-.8-2.2-2-4.2-3.5-6-1.6-1.7-3.5-3.1-5.7-4.1-2.3-1-4.9-1.5-7.4-1.5-2.6 0-5.1.5-7.4 1.5-2.1 1-4 2.4-5.6 4.2-1.6 1.8-2.8 3.9-3.6 6.2-.8 2.5-1.2 5-1.2 7.6 0 2.5.4 5 1.3 7.4.8 2.3 2.1 4.4 3.6 6.3 1.6 1.8 3.5 3.3 5.7 4.4 2.3 1.1 4.9 1.7 7.4 1.6 2.6.1 5.2-.5 7.6-1.7 2.1-1.1 4-2.6 5.5-4.5s2.7-4.1 3.4-6.5c.8-2.3 1.2-4.9 1.2-7.5zm-.3 25.4v-8.6h-.2c-.8 1.6-1.8 3-3.1 4.1-1.3 1.2-2.8 2.3-4.4 3.1-1.6.8-3.4 1.5-5.1 1.9-5.1 1.2-10.5.7-15.3-1.3-2.9-1.3-5.5-3.1-7.7-5.5s-3.9-5.2-5-8.3c-1.2-3.3-1.8-6.8-1.8-10.4 0-3.4.6-6.8 1.8-10.1 1.1-3 2.8-5.8 5-8.1s4.8-4.2 7.7-5.5c3.1-1.4 6.5-2 9.9-2 1.8 0 3.6.2 5.4.6 1.7.4 3.4 1 5 1.8s3 1.8 4.3 2.9c1.3 1.2 2.5 2.5 3.4 4h.2v-8.2h7.4v49.5H598zM642.8 123.8l-21-24.1-2.1 1.9v22.3h-7.4V39h7.4v55.6l21.1-20.3h9.5L627.4 96l24.7 27.8z" class="st0"/><path d="M690.8 88.6c-.8-1.9-1.9-3.6-3.3-5.1-1.4-1.5-3.1-2.6-5-3.3-2.2-.9-4.6-1.3-7-1.2-2.3 0-4.5.4-6.6 1.2-2 .8-3.7 1.9-5.3 3.4-1.5 1.4-2.7 3.1-3.6 4.9-.9 2-1.5 4.1-1.7 6.3h34.4c-.4-2.1-1.1-4.2-1.9-6.2zM658 100.2c0 2.7.5 5.3 1.6 7.8.9 2.2 2.2 4.2 3.9 5.9 1.7 1.6 3.6 2.9 5.8 3.8 2.2.9 4.6 1.4 7.1 1.3 3.4.1 6.8-.9 9.7-2.7 2.8-1.9 5.1-4.5 6.8-7.4l6.3 1.7c-1.9 4.4-5.2 8.1-9.4 10.6-2 1.3-4.2 2.2-6.5 2.9-2.4.6-4.9.9-7.4.9-3.5.1-7.1-.6-10.3-2-3-1.3-5.7-3.1-7.9-5.5s-4-5.2-5.1-8.2c-1.2-3.3-1.8-6.7-1.8-10.2 0-3.4.6-6.9 1.8-10.1 1.1-3 2.8-5.8 5-8.2 2.2-2.4 4.9-4.3 7.8-5.5 3.2-1.4 6.6-2.1 10.1-2 3.6-.1 7.1.6 10.5 2 3 1.2 5.6 3.1 7.8 5.5 2.2 2.5 3.8 5.4 4.8 8.5 1.1 3.6 1.7 7.3 1.6 11H658zM725.9 80.6c-.9-.2-1.9-.3-2.8-.3-1.5 0-3 .4-4.3 1.2-1.3.8-2.3 1.9-3 3.3-2 4.4-2.8 9.2-2.5 14v24.9h-7.4V74.3h7.4V81h.2c.9-2.4 2.5-4.4 4.6-5.8 2.1-1.4 4.6-2.1 7.1-1.9.8 0 1.7.1 2.5.3.8.2 1.7.4 2.5.8l-1.6 7.2c-.9-.5-1.8-.8-2.7-1zM735.4 50.5v13.4h-1.5V50.5h-3.7v-1.3h8.8v1.3zM754.7 63.9l-2.1-11.1-4.7 11.1h-.4l-4.6-11.1-2.2 11.1h-1.5l2.9-14.7h.8l4.8 11.9 4.8-11.9h.8l2.9 14.7z" class="st0"/></svg>